<?xml version="1.0" encoding="UTF-8" standalone="no"?>
<!-- Created with Inkscape (http://www.inkscape.org/) -->

<svg
   xmlns:dc="http://purl.org/dc/elements/1.1/"
   xmlns:cc="http://creativecommons.org/ns#"
   xmlns:rdf="http://www.w3.org/1999/02/22-rdf-syntax-ns#"
   xmlns:svg="http://www.w3.org/2000/svg"
   xmlns="http://www.w3.org/2000/svg"
   xmlns:sodipodi="http://sodipodi.sourceforge.net/DTD/sodipodi-0.dtd"
   xmlns:inkscape="http://www.inkscape.org/namespaces/inkscape"
   width="173.23605mm"
   height="34.841496mm"
   viewBox="0 0 173.23605 34.841495"
   version="1.1"
   id="svg4547"
   inkscape:version="0.92.3 (2405546, 2018-03-11)"
   sodipodi:docname="drawing-1.svg">
  <defs
     id="defs4541" />
  <sodipodi:namedview
     id="base"
     pagecolor="#000000"
     bordercolor="#666666"
     borderopacity="1.0"
     inkscape:pageopacity="0"
     inkscape:pageshadow="2"
     inkscape:zoom="0.030935922"
     inkscape:cx="12775.905"
     inkscape:cy="-12211.056"
     inkscape:document-units="mm"
     inkscape:current-layer="layer1"
     showgrid="false"
     fit-margin-top="0"
     fit-margin-left="0"
     fit-margin-right="0"
     fit-margin-bottom="0"
     inkscape:window-width="2736"
     inkscape:window-height="1699"
     inkscape:window-x="1235"
     inkscape:window-y="2159"
     inkscape:window-maximized="1" />
  <metadata
     id="metadata4544">
    <rdf:RDF>
      <cc:Work
         rdf:about="">
        <dc:format>image/svg+xml</dc:format>
        <dc:type
           rdf:resource="http://purl.org/dc/dcmitype/StillImage" />
        <dc:title></dc:title>
      </cc:Work>
    </rdf:RDF>
  </metadata>
  <g
     inkscape:label="Layer 1"
     inkscape:groupmode="layer"
     id="layer1"
     transform="translate(-8.7034073,-151.98479)">
    <path
       style="fill:#f4f4f4;fill-opacity:1;stroke-width:0.13229167"
       d="m 73.12945,186.74633 c -1.423256,-0.18877 -2.624796,-0.7435 -3.592269,-1.6585 -1.287321,-1.21749 -1.79091,-2.48774 -1.787619,-4.50908 0.0023,-1.42019 0.171209,-2.26926 0.635142,-3.19292 0.494494,-0.98452 1.13788,-1.70496 2.066634,-2.31413 1.295218,-0.84953 2.781069,-1.25293 6.595346,-1.7906 1.847345,-0.26041 3.530619,-0.50793 3.740611,-0.55005 l 0.381803,-0.0766 -0.07477,-0.98858 c -0.0989,-1.30774 -0.434691,-2.19776 -1.114894,-2.9551 -0.854863,-0.95181 -1.635707,-1.24095 -3.344258,-1.23835 -2.180316,0.003 -4.137949,0.64002 -6.026106,1.95994 l -0.85306,0.59633 v -1.84387 -1.84388 l 1.091406,-0.52596 c 3.454647,-1.66485 7.884787,-1.88546 10.576524,-0.52667 1.5848,0.8 2.753822,2.4043 3.244192,4.45215 0.180789,0.755 0.221751,2.09928 0.266037,8.73068 l 0.05235,7.83828 h -1.926711 -1.92671 v -1.68495 -1.68495 l -0.448912,0.6666 c -1.588888,2.35936 -4.45615,3.55116 -7.554734,3.14019 z m 3.388454,-3.08342 c 2.126548,-0.39688 3.833987,-2.05184 4.435097,-4.29878 0.216141,-0.80793 0.246684,-3.77031 0.03887,-3.77031 -0.477944,0 -5.983682,0.83937 -6.473362,0.98689 -1.485769,0.44759 -2.226817,1.00269 -2.654204,1.98819 -1.316217,3.03502 1.160334,5.74596 4.653595,5.09401 z m 39.062246,3.04357 c -2.98782,-0.43789 -5.64858,-2.46418 -6.87387,-5.23476 -0.8191,-1.85213 -1.23143,-4.80374 -0.9938,-7.11398 0.19517,-1.89738 0.46308,-2.8616 1.23715,-4.45246 0.59863,-1.23032 0.82044,-1.53322 1.94087,-2.65044 2.04498,-2.03913 3.83688,-2.78347 6.75509,-2.80601 2.62505,-0.0203 4.49742,0.69165 6.16363,2.34357 0.71035,0.70426 1.07187,1.20307 1.48905,2.05454 0.85328,1.74153 1.09622,2.86866 1.17622,5.45704 l 0.0685,2.21588 h -7.49139 -7.4914 l 0.002,0.56224 c 0.004,0.94249 0.36626,2.36375 0.8571,3.36127 1.4073,2.86006 4.95331,4.01909 8.84545,2.89119 1.23294,-0.35729 2.187,-0.79288 3.08513,-1.40854 0.30415,-0.20849 0.58871,-0.37908 0.63234,-0.37908 0.0436,0 0.0627,0.75903 0.0423,1.68672 l -0.037,1.68672 -1.19207,0.59909 c -1.28992,0.64827 -2.53255,1 -4.2175,1.19377 -1.2276,0.14117 -3.00918,0.13816 -3.99806,-0.007 z m 7.09253,-13.86299 c 0,-0.88647 -0.2766,-2.05152 -0.67023,-2.82311 -1.55039,-3.03902 -5.7569,-3.4718 -8.36779,-0.86091 -1.01196,1.01196 -1.77041,2.48321 -2.00416,3.88773 l -0.0936,0.56224 h 5.56788 5.56788 z m 46.55703,13.85438 c -3.40041,-0.50032 -5.9658,-3.09436 -6.94254,-7.02008 -0.29314,-1.17814 -0.40033,-4.45782 -0.19527,-5.97394 0.62623,-4.62982 3.20991,-7.89975 7.08726,-8.9697 1.1981,-0.33061 3.48217,-0.3938 4.62008,-0.12781 1.51803,0.35484 2.86233,1.2666 4.00926,2.71925 l 0.4178,0.52917 0.005,-6.64766 0.004,-6.64766 h 1.85208 1.85208 v 15.875 15.875 h -1.85208 -1.85208 v -1.71979 c 0,-0.94588 -0.0446,-1.71979 -0.0992,-1.71979 -0.0546,0 -0.38826,0.39053 -0.74154,0.86783 -1.76786,2.38856 -4.73598,3.46467 -8.16471,2.96018 z m 4.38432,-3.24729 c 1.11534,-0.33067 1.71479,-0.68894 2.50415,-1.49665 1.53128,-1.56685 1.97612,-2.91699 2.07374,-6.29397 0.10378,-3.58997 -0.24674,-4.86219 -1.75931,-6.38536 -1.06444,-1.0719 -2.12419,-1.58456 -3.5193,-1.70249 -3.30139,-0.27907 -5.72711,1.53788 -6.74172,5.04979 -0.26631,0.92179 -0.3035,1.33521 -0.29705,3.30265 0.007,2.07276 0.035,2.33187 0.36021,3.30729 0.75328,2.25949 2.29484,3.84838 4.1601,4.28783 0.82636,0.19469 2.44677,0.15991 3.21918,-0.0691 z m -147.680887,2.80976 c -0.871866,-0.3246 -1.708232,-1.08842 -2.191515,-2.00142 -0.29864,-0.56417 -0.350406,-0.82683 -0.351989,-1.78593 -0.0016,-1.00107 0.04121,-1.20224 0.39056,-1.83296 0.780197,-1.40858 2.027312,-2.13767 3.654423,-2.13645 2.72079,0.002 4.648976,2.80071 3.68641,5.35065 -0.321315,0.8512 -1.19993,1.85138 -1.991553,2.26712 -0.597753,0.31392 -2.503859,0.3968 -3.196336,0.13899 z m 14.983286,-14.966 v -15.0151 h 1.917079 1.917081 l 0.03422,7.10705 0.03422,7.10706 0.396875,-0.53959 c 0.218281,-0.29677 2.867422,-3.4941 5.886979,-7.10519 l 5.490104,-6.56561 2.355985,-0.002 c 1.711374,-0.001 2.330827,0.0388 2.264037,0.14691 -0.05057,0.0818 -2.852052,3.30409 -6.225515,7.16059 -3.373464,3.85651 -6.133569,7.05494 -6.133569,7.10763 0,0.0527 2.872383,3.41549 6.383073,7.47288 3.51069,4.0574 6.521334,7.54882 6.690318,7.75871 l 0.307244,0.38162 h -2.627733 -2.627733 l -5.815449,-7.02296 c -3.198497,-3.86263 -5.903652,-7.16662 -6.011455,-7.34219 -0.107804,-0.17557 -0.241749,-0.31922 -0.297657,-0.31922 -0.05591,0 -0.10165,3.30398 -0.10165,7.34219 v 7.34218 h -1.918229 -1.918229 z m 53.975001,-0.8599 v -15.875 h 1.852083 1.852083 v 15.875 15.875 H 96.743513 94.89143 Z m 40.34895,5.15938 v -10.71563 h 1.91823 1.91823 l 0.007,1.75287 0.007,1.75286 0.29031,-0.39423 c 0.63743,-0.8656 1.90796,-2.0925 2.60613,-2.51662 2.24145,-1.36161 6.01378,-1.40455 8.06907,-0.0919 1.71392,1.09467 2.81071,3.04384 3.16519,5.62505 0.0867,0.6316 0.14211,3.8147 0.14211,8.16901 v 7.13417 h -1.85209 -1.85208 l -0.002,-5.8539 c -0.003,-7.63785 -0.13027,-9.12681 -0.91319,-10.66148 -0.66407,-1.30166 -1.85255,-2.08497 -3.37986,-2.22759 -2.91413,-0.27213 -5.31333,1.50836 -6.08573,4.51634 -0.16873,0.65718 -0.20245,1.90728 -0.20245,7.50755 v 6.71908 h -1.91823 -1.91823 z m -121.97291,5.68697 c -1.903369,-0.32815 -3.3552582,-1.45212 -4.1966696,-3.24882 -0.3285265,-0.70151 -0.3673931,-0.93145 -0.3673931,-2.17357 0,-1.2877 0.030825,-1.45413 0.4224249,-2.28081 1.3278758,-2.80316 4.6437848,-3.97226 7.4075198,-2.61167 3.339199,1.64388 4.08031,6.07877 1.460564,8.74017 -1.221996,1.24142 -3.076263,1.85921 -4.726446,1.5747 z m 9.55288,-11.7886 c -1.017636,-0.15001 -2.675941,-0.74216 -3.472068,-1.23981 -0.992847,-0.62061 -2.525525,-2.2819 -3.076292,-3.33444 -1.356392,-2.59211 -1.358298,-5.66873 -0.0051,-8.28158 0.700955,-1.35348 2.410695,-3.04282 3.747484,-3.70276 1.420099,-0.70107 2.473626,-0.94881 4.034896,-0.94881 2.486174,0 4.350237,0.7797 6.167246,2.57961 0.93065,0.9219 1.241316,1.33842 1.690646,2.26673 0.740578,1.53004 0.984339,2.72897 0.896419,4.40904 -0.122162,2.33443 -0.923019,4.09978 -2.629225,5.79568 -0.809237,0.80435 -1.280343,1.14801 -2.127064,1.55165 -1.763093,0.84046 -3.556718,1.15091 -5.226912,0.90469 z"
       id="path4586"
       inkscape:connector-curvature="0" />
  </g>
</svg>
